<?xml version="1.0" encoding="UTF-8" standalone="no"?>
<!DOCTYPE svg PUBLIC "-//W3C//DTD SVG 1.1//EN" "http://www.w3.org/Graphics/SVG/1.1/DTD/svg11.dtd">
<!-- Created with Vectornator (http://vectornator.io/) -->
<svg height="100%" stroke-miterlimit="10" style="fill-rule:nonzero;clip-rule:evenodd;stroke-linecap:round;stroke-linejoin:round;" version="1.1" viewBox="0 0 64 64" width="100%" xml:space="preserve" xmlns="http://www.w3.org/2000/svg" xmlns:vectornator="http://vectornator.io" xmlns:xlink="http://www.w3.org/1999/xlink">
<defs/>
<g id="General" vectornator:layerName="General">
<g opacity="1" vectornator:layerName="clo-t-hanger">
<path d="M36.9386 18.5745L40.0968 19.6309C41.2561 20.0604 42.2481 20.8057 42.9408 21.7682L46.8157 27.1537L41.8771 30.0135L39.4079 26.5818L39.4079 41.4524L24.5921 41.4524L24.5921 26.5818L22.1229 30.0135L17.1843 27.1537L21.0592 21.7682C21.7519 20.8057 22.7439 20.0604 23.9032 19.6309L27.0614 18.5745C27.0614 20.4694 29.2727 22.0062 32 22.0062C34.7273 22.0062 36.9386 20.4694 36.9386 18.5745" fill="#ffffff" fill-opacity="0.25" fill-rule="evenodd" opacity="1" stroke="#05095e" stroke-linecap="round" stroke-linejoin="round" stroke-width="2" vectornator:layerName="path"/>
<path d="M36.9386 18.5745L40.0968 19.6309C41.2561 20.0604 42.2481 20.8057 42.9408 21.7682L46.8157 27.1537L41.8771 30.0135L39.4079 26.5818L39.4079 41.4524L24.5921 41.4524L24.5921 26.5818L22.1229 30.0135L17.1843 27.1537L21.0592 21.7682C21.7519 20.8057 22.7439 20.0604 23.9032 19.6309L27.0614 18.5745C27.0614 20.4694 29.2727 22.0062 32 22.0062C34.7273 22.0062 36.9386 20.4694 36.9386 18.5745Z" fill="#ffffff" fill-opacity="0.25" fill-rule="evenodd" opacity="1" stroke="#05095e" stroke-linecap="round" stroke-linejoin="round" stroke-width="2" vectornator:layerName="path"/>
<path d="M32 18.5745L32 16.2867" fill="#ffffff" fill-opacity="0.25" fill-rule="evenodd" opacity="1" stroke="#05095e" stroke-linecap="round" stroke-linejoin="round" stroke-width="2" vectornator:layerName="path"/>
<path d="M29.5307 13.9989C29.5307 12.7355 30.6363 11.7111 32 11.7111C33.3637 11.7111 34.4693 12.7355 34.4693 13.9989C34.4693 15.2623 33.3637 16.2867 32 16.2867" fill="#ffffff" fill-opacity="0.25" fill-rule="evenodd" opacity="1" stroke="#05095e" stroke-linecap="round" stroke-linejoin="round" stroke-width="2" vectornator:layerName="path"/>
<path d="M29.5307 18.5745L34.4693 18.5745" fill="#ffffff" fill-opacity="0.25" fill-rule="evenodd" opacity="1" stroke="#05095e" stroke-linecap="round" stroke-linejoin="round" stroke-width="2" vectornator:layerName="path"/>
</g>
<g fill="#05095e" opacity="1" stroke="none" vectornator:layerName="Text 1">
<path d="M13.6248 50.5891L13.6248 51.6672C13.0987 51.2271 12.5545 51.0071 11.992 51.0071C11.3722 51.0071 10.85 51.2297 10.4256 51.675C9.99847 52.1178 9.78493 52.6594 9.78493 53.3C9.78493 53.9329 9.99847 54.4667 10.4256 54.9016C10.8526 55.3365 11.3761 55.5539 11.9959 55.5539C12.3162 55.5539 12.5883 55.5019 12.8123 55.3977C12.9373 55.3456 13.0668 55.2753 13.2009 55.1868C13.3351 55.0982 13.4763 54.9914 13.6248 54.8664L13.6248 55.9641C13.1039 56.2584 12.5571 56.4055 11.9842 56.4055C11.1222 56.4055 10.3865 56.1047 9.77712 55.5032C9.17035 54.8964 8.86696 54.1646 8.86696 53.3079C8.86696 52.5396 9.12087 51.8547 9.62868 51.2532C10.2537 50.5162 11.0623 50.1477 12.0545 50.1477C12.5961 50.1477 13.1196 50.2948 13.6248 50.5891Z"/>
<path d="M15.4842 49.6985L15.4842 56.2961L14.6052 56.2961L14.6052 49.6985L15.4842 49.6985Z"/>
<path d="M16.4177 54.3664C16.4177 53.817 16.6144 53.3495 17.0076 52.9641C17.4008 52.5787 17.88 52.386 18.4451 52.386C19.0128 52.386 19.4946 52.58 19.8904 52.968C20.281 53.356 20.4763 53.8326 20.4763 54.3977C20.4763 54.968 20.2797 55.4459 19.8865 55.8313C19.4907 56.2141 19.005 56.4055 18.4295 56.4055C17.8592 56.4055 17.3813 56.2102 16.9959 55.8196C16.6105 55.4342 16.4177 54.9498 16.4177 54.3664ZM17.3162 54.3821C17.3162 54.7623 17.4177 55.0631 17.6209 55.2844C17.8292 55.5084 18.1039 55.6204 18.4451 55.6204C18.7888 55.6204 19.0636 55.5097 19.2693 55.2883C19.475 55.067 19.5779 54.7714 19.5779 54.4016C19.5779 54.0318 19.475 53.7362 19.2693 53.5149C19.061 53.2909 18.7862 53.1789 18.4451 53.1789C18.1092 53.1789 17.837 53.2909 17.6287 53.5149C17.4203 53.7388 17.3162 54.0279 17.3162 54.3821Z"/>
<path d="M22.3592 53.3118L22.3592 56.2961L21.4802 56.2961L21.4802 53.3118L21.1052 53.3118L21.1052 52.4914L21.4802 52.4914L21.4802 51.0969L22.3592 51.0969L22.3592 52.4914L23.0427 52.4914L23.0427 53.3118L22.3592 53.3118Z"/>
<path d="M23.8006 49.6985L24.6795 49.6985L24.6795 52.8079C24.992 52.5266 25.337 52.386 25.7146 52.386C26.1443 52.386 26.4881 52.5253 26.7459 52.8039C26.9646 53.0461 27.074 53.4329 27.074 53.9641L27.074 56.2961L26.1951 56.2961L26.1951 54.0461C26.1951 53.7414 26.1411 53.5207 26.033 53.384C25.9249 53.2473 25.7511 53.1789 25.5115 53.1789C25.2042 53.1789 24.9881 53.274 24.8631 53.4641C24.7407 53.6568 24.6795 53.9875 24.6795 54.4563L24.6795 56.2961L23.8006 56.2961L23.8006 49.6985Z"/>
<path d="M35.281 50.5891L35.281 51.6672C34.755 51.2271 34.2107 51.0071 33.6482 51.0071C33.0284 51.0071 32.5063 51.2297 32.0818 51.675C31.6547 52.1178 31.4412 52.6594 31.4412 53.3C31.4412 53.9329 31.6547 54.4667 32.0818 54.9016C32.5089 55.3365 33.0323 55.5539 33.6521 55.5539C33.9724 55.5539 34.2446 55.5019 34.4685 55.3977C34.5935 55.3456 34.7231 55.2753 34.8572 55.1868C34.9913 55.0982 35.1326 54.9914 35.281 54.8664L35.281 55.9641C34.7602 56.2584 34.2133 56.4055 33.6404 56.4055C32.7784 56.4055 32.0427 56.1047 31.4334 55.5032C30.8266 54.8964 30.5232 54.1646 30.5232 53.3079C30.5232 52.5396 30.7771 51.8547 31.2849 51.2532C31.9099 50.5162 32.7185 50.1477 33.7107 50.1477C34.2524 50.1477 34.7758 50.2948 35.281 50.5891Z"/>
<path d="M37.1404 49.6985L37.1404 56.2961L36.2615 56.2961L36.2615 49.6985L37.1404 49.6985Z"/>
<path d="M38.074 54.3664C38.074 53.817 38.2706 53.3495 38.6638 52.9641C39.0571 52.5787 39.5362 52.386 40.1013 52.386C40.669 52.386 41.1508 52.58 41.5467 52.968C41.9373 53.356 42.1326 53.8326 42.1326 54.3977C42.1326 54.968 41.936 55.4459 41.5427 55.8313C41.1469 56.2141 40.6612 56.4055 40.0857 56.4055C39.5154 56.4055 39.0375 56.2102 38.6521 55.8196C38.2667 55.4342 38.074 54.9498 38.074 54.3664ZM38.9724 54.3821C38.9724 54.7623 39.074 55.0631 39.2771 55.2844C39.4855 55.5084 39.7602 55.6204 40.1013 55.6204C40.4451 55.6204 40.7198 55.5097 40.9256 55.2883C41.1313 55.067 41.2342 54.7714 41.2342 54.4016C41.2342 54.0318 41.1313 53.7362 40.9256 53.5149C40.7172 53.2909 40.4425 53.1789 40.1013 53.1789C39.7654 53.1789 39.4933 53.2909 39.2849 53.5149C39.0766 53.7388 38.9724 54.0279 38.9724 54.3821Z"/>
<path d="M43.9412 52.4914L43.9412 54.675C43.9412 55.3053 44.1899 55.6204 44.6873 55.6204C45.1847 55.6204 45.4334 55.3053 45.4334 54.675L45.4334 52.4914L46.3123 52.4914L46.3123 54.6946C46.3123 54.9993 46.2745 55.2623 46.199 55.4836C46.1261 55.6816 45.9998 55.8599 45.8201 56.0188C45.5232 56.2766 45.1456 56.4055 44.6873 56.4055C44.2315 56.4055 43.8552 56.2766 43.5584 56.0188C43.3761 55.8599 43.2472 55.6816 43.1717 55.4836C43.0987 55.3066 43.0623 55.0435 43.0623 54.6946L43.0623 52.4914L43.9412 52.4914Z"/>
<path d="M50.2263 49.6985L51.1092 49.6985L51.1092 56.2961L50.2263 56.2961L50.2263 55.8977C49.88 56.2362 49.4881 56.4055 49.0506 56.4055C48.5297 56.4055 48.0974 56.2154 47.7537 55.8352C47.4125 55.4472 47.242 54.9628 47.242 54.3821C47.242 53.8144 47.4125 53.3404 47.7537 52.9602C48.0922 52.5774 48.518 52.386 49.031 52.386C49.4763 52.386 49.8748 52.5683 50.2263 52.9329L50.2263 49.6985ZM48.1404 54.3821C48.1404 54.7467 48.2381 55.0435 48.4334 55.2727C48.6339 55.5045 48.8865 55.6204 49.1912 55.6204C49.5167 55.6204 49.7797 55.5084 49.9802 55.2844C50.1808 55.0526 50.281 54.7584 50.281 54.4016C50.281 54.0448 50.1808 53.7506 49.9802 53.5188C49.7797 53.2922 49.5193 53.1789 49.199 53.1789C48.8969 53.1789 48.6443 53.2935 48.4412 53.5227C48.2407 53.7545 48.1404 54.0409 48.1404 54.3821Z"/>
</g>
<path d="M12.5162 27.4677C12.5162 16.6807 21.2394 7.93607 32 7.93607C42.7606 7.93607 51.4838 16.6807 51.4838 27.4677C51.4838 38.2548 42.7606 46.9994 32 46.9994C21.2394 46.9994 12.5162 38.2548 12.5162 27.4677Z" fill="#ffffff" fill-opacity="0" fill-rule="nonzero" opacity="1" stroke="#11055c" stroke-linecap="butt" stroke-linejoin="round" stroke-width="2.0365" vectornator:layerName="Oval 1"/>
</g>
</svg>
